<svg xmlns="http://www.w3.org/2000/svg" version="1.1" xmlns:xlink="http://www.w3.org/1999/xlink" xmlns:svgjs="http://svgjs.com/svgjs" width="1440" height="250" preserveAspectRatio="none" viewBox="0 0 1440 250"><g mask="url(&quot;#SvgjsMask1000&quot;)" fill="none"><rect width="1440" height="250" x="0" y="0" fill="#0e2a47"></rect><path d="M16 250L266 0L339.5 0L89.5 250z" fill="url(#SvgjsLinearGradient1001)"></path><path d="M253.60000000000002 250L503.6 0L608.6 0L358.6 250z" fill="url(#SvgjsLinearGradient1001)"></path><path d="M510.20000000000005 250L760.2 0L976.2 0L726.2 250z" fill="url(#SvgjsLinearGradient1001)"></path><path d="M759.8000000000001 250L1009.8000000000001 0L1050.3000000000002 0L800.3000000000001 250z" fill="url(#SvgjsLinearGradient1001)"></path><path d="M1399 250L1149 0L888 0L1138 250z" fill="url(#SvgjsLinearGradient1002)"></path><path d="M1162.4 250L912.4000000000001 0L865.9000000000001 0L1115.9 250z" fill="url(#SvgjsLinearGradient1002)"></path><path d="M925.8 250L675.8 0L635.3 0L885.3 250z" fill="url(#SvgjsLinearGradient1002)"></path><path d="M704.1999999999999 250L454.19999999999993 0L337.19999999999993 0L587.1999999999999 250z" fill="url(#SvgjsLinearGradient1002)"></path><path d="M1304.027706079887 250L1440 114.02770607988685L1440 250z" fill="url(#SvgjsLinearGradient1001)"></path><path d="M0 250L135.97229392011315 250L 0 114.02770607988685z" fill="url(#SvgjsLinearGradient1002)"></path></g><defs><mask id="SvgjsMask1000"><rect width="1440" height="250" fill="#ffffff"></rect></mask><linearGradient x1="0%" y1="100%" x2="100%" y2="0%" id="SvgjsLinearGradient1001"><stop stop-color="rgba(15, 70, 185, 0.2)" offset="0"></stop><stop stop-opacity="0" stop-color="rgba(15, 70, 185, 0.2)" offset="0.66"></stop></linearGradient><linearGradient x1="100%" y1="100%" x2="0%" y2="0%" id="SvgjsLinearGradient1002"><stop stop-color="rgba(15, 70, 185, 0.2)" offset="0"></stop><stop stop-opacity="0" stop-color="rgba(15, 70, 185, 0.2)" offset="0.66"></stop></linearGradient></defs></svg>